<svg xmlns="http://www.w3.org/2000/svg" viewBox="0 0 133.23 133.23"><defs><style>.cls-1{fill:#1eafd4;}.cls-2{fill:#fff;}</style></defs><title>servicio2</title><g id="Layer_2" data-name="Layer 2"><g id="Capa_1" data-name="Capa 1"><path class="cls-1" d="M0,0H97.86a35.38,35.38,0,0,1,35.38,35.38v97.86a0,0,0,0,1,0,0H37.79A37.79,37.79,0,0,1,0,95.44V0A0,0,0,0,1,0,0Z"/><path class="cls-2" d="M73.46,97.13a5,5,0,1,0,5,5A5,5,0,0,0,73.46,97.13Zm0,7.18a2.15,2.15,0,1,1,2.15-2.15A2.16,2.16,0,0,1,73.46,104.32Z"/><path class="cls-2" d="M79.93,78.46a5.75,5.75,0,1,0-5.75-5.75A5.76,5.76,0,0,0,79.93,78.46Zm0-8.62a2.87,2.87,0,1,1-2.88,2.87A2.87,2.87,0,0,1,79.93,69.84Z"/><path class="cls-2" d="M47.31,37.21l-2.87,2.88a1.44,1.44,0,0,0,1,2.45,1.46,1.46,0,0,0,1-.42l2.88-2.88a1.44,1.44,0,0,0-2-2Z"/><path class="cls-2" d="M97.17,68a4.72,4.72,0,0,0-1.38-3.35l-.81-.8A6.45,6.45,0,0,0,90.7,52.6a6.86,6.86,0,0,0-.77.06,6.87,6.87,0,0,0,.06-.77,6.48,6.48,0,0,0-6.47-6.47,6.86,6.86,0,0,0-.77.06,6.86,6.86,0,0,0,.06-.77,6.48,6.48,0,0,0-6.47-6.47,6.87,6.87,0,0,0-.77.06,6.85,6.85,0,0,0,.06-.77,6.45,6.45,0,0,0-11.29-4.28l-1.14-1.14-5.4-5.41a4.74,4.74,0,0,0-6.69,0L33.4,44.37a4.74,4.74,0,0,0,0,6.69L45.85,63.53a6.43,6.43,0,0,0-.38,11,2.13,2.13,0,0,0,.32.35L61.25,90.24v2.58H58.38V111.5H95.73V92.83H92.86V88.47A12.17,12.17,0,0,0,95,72.2l.82-.82A4.7,4.7,0,0,0,97.17,68ZM83.52,48.29a3.58,3.58,0,0,1,2.25,6.38l-5-5A3.57,3.57,0,0,1,83.52,48.29ZM76.33,41.1a3.58,3.58,0,0,1,2.25,6.38l-5-5A3.57,3.57,0,0,1,76.33,41.1Zm-7.18-7.18a3.58,3.58,0,0,1,2.24,6.38l-5-5A3.58,3.58,0,0,1,69.16,33.92ZM35.43,49a1.86,1.86,0,0,1,0-2.63L53.11,28.72a2,2,0,0,1,.61-.41,2.85,2.85,0,0,1,.32-.06,2,2,0,0,1,.76,0,2.93,2.93,0,0,1,.32.06,2,2,0,0,1,.61.41l3.37,3.37L38.8,52.41Zm5.4,5.4L61.15,34.12l32.6,32.6a1.87,1.87,0,0,1,0,2.63l-.63.62L76.06,87a1.85,1.85,0,0,1-2.63,0L62,75.58H63.4a6.46,6.46,0,1,0,0-12.93H49Zm4.62,14.68a3.6,3.6,0,0,1,2.82-3.5l.6-.07.17,0H63.4a3.59,3.59,0,0,1,0,7.18H49A3.6,3.6,0,0,1,45.45,69.12Zm35.92,39.51H61.25V95.7H73.36a8,8,0,0,1,8,8Zm11.5,0H84.24v-4.92a10.83,10.83,0,0,0-3.54-8H92.86Zm-2.3-22-.58.43v5.76H64.13V88.92l-.51-.43-.26-.2L50.6,75.58h7.31L71.4,89.07a4.74,4.74,0,0,0,6.69,0l14.8-14.8a9.29,9.29,0,0,1-2.33,12.36ZM93,61.86l-5-5a3.59,3.59,0,1,1,5,5Z"/></g></g></svg>