<svg xmlns="http://www.w3.org/2000/svg" viewBox="0 0 133.23 133.23"><defs><style>.cls-1{fill:#1eafd4;}.cls-2{fill:#fff;}</style></defs><title>servicio4</title><g id="Layer_2" data-name="Layer 2"><g id="Capa_1" data-name="Capa 1"><path class="cls-1" d="M0,0H97.86a35.38,35.38,0,0,1,35.38,35.38v97.86a0,0,0,0,1,0,0H37.79A37.79,37.79,0,0,1,0,95.44V0A0,0,0,0,1,0,0Z"/><path class="cls-2" d="M102.49,83.55V75.84a10.45,10.45,0,0,0-5.89-9.39L92.32,52.68c-.44-1.41-1.61-5.17-5-5.17H71.18v-3a6,6,0,1,0-11.93,0v3H52.06c-3.38,0-4.55,3.76-5,5.17L42.79,66.44a10.45,10.45,0,0,0-5.89,9.39v7.71a4.47,4.47,0,0,0,1.49,8.69h1.49v5.29a3.66,3.66,0,0,0,3.66,3.66h4.61a3.66,3.66,0,0,0,3.66-3.66V92.24H87.58v5.29a3.66,3.66,0,0,0,3.66,3.66h4.61a3.66,3.66,0,0,0,3.66-3.66V92.24H101a4.47,4.47,0,0,0,1.49-8.69Zm-40.25-39a3,3,0,1,1,6,0v3h-6Zm-16,20.93,3.7-11.89c.85-2.73,1.59-3.08,2.14-3.08H87.32c.55,0,1.3.35,2.14,3.08l3.7,11.89h0l-.4,0H46.63l-.4,0ZM39.88,75.84a7.46,7.46,0,0,1,4.66-6.91h0a7.4,7.4,0,0,1,1-.32h0l.3-.07.1,0,.25,0,.16,0,.2,0,.22,0H92.57l.22,0,.19,0,.17,0,.23,0,.11,0,.28.06h.05a7.36,7.36,0,0,1,1,.32h0a7.46,7.46,0,0,1,4.65,6.91v7.45H39.88Zm8.94,21.69a.68.68,0,0,1-.68.68H43.53a.68.68,0,0,1-.68-.68V92.24h6Zm47.71,0a.68.68,0,0,1-.68.68H91.24a.68.68,0,0,1-.68-.68V92.24h6ZM101,89.25H38.38a1.49,1.49,0,0,1,0-3H101a1.49,1.49,0,0,1,0,3Z"/><path class="cls-2" d="M53.29,71.36h-6a4.47,4.47,0,0,0,0,8.95h6a4.47,4.47,0,0,0,0-8.95Zm0,6h-6a1.49,1.49,0,1,1,0-3h6a1.49,1.49,0,0,1,0,3Z"/><path class="cls-2" d="M92.06,71.36h-6a4.47,4.47,0,0,0,0,8.95h6a4.47,4.47,0,1,0,0-8.95Zm0,6h-6a1.49,1.49,0,0,1,0-3h6a1.49,1.49,0,1,1,0,3Z"/><path class="cls-2" d="M65.22,35.58a1.49,1.49,0,0,0,1.49-1.49v-3a1.49,1.49,0,0,0-3,0v3A1.49,1.49,0,0,0,65.22,35.58Z"/><path class="cls-2" d="M56.79,38.2a1.49,1.49,0,0,0,2.11-2.11L56.79,34a1.49,1.49,0,1,0-2.11,2.11Z"/><path class="cls-2" d="M72.6,38.64a1.49,1.49,0,0,0,1.05-.44l2.11-2.11A1.49,1.49,0,0,0,73.65,34l-2.11,2.11a1.49,1.49,0,0,0,1.05,2.55Z"/></g></g></svg>