<svg xmlns="http://www.w3.org/2000/svg" viewBox="0 0 133.23 133.23"><defs><style>.cls-1{fill:#1eafd4;}.cls-2{fill:#fff;}</style></defs><title>servicio3</title><g id="Layer_2" data-name="Layer 2"><g id="Capa_1" data-name="Capa 1"><path class="cls-1" d="M0,0H97.86a35.38,35.38,0,0,1,35.38,35.38v97.86a0,0,0,0,1,0,0H37.79A37.79,37.79,0,0,1,0,95.44V0A0,0,0,0,1,0,0Z"/><path class="cls-2" d="M96.42,83.59A11.25,11.25,0,0,0,90.13,79l-.08,0-9.23-1.93-2.49-3.77,0-.06a2.31,2.31,0,0,0-3.32-.4l0,0-11,9.51-11-9.51,0,0a2.31,2.31,0,0,0-3.32.4l0,.06L47,77.05,37.77,79l-.08,0a11.25,11.25,0,0,0-6.29,4.59,12.74,12.74,0,0,0-2.21,7.1v2.87a4.43,4.43,0,0,0,4.63,4.2H94a4.43,4.43,0,0,0,4.63-4.2V90.7a12.72,12.72,0,0,0-2.21-7.1Zm-20-9,2.27,3.44-8,11L68.2,86.53l-2.59-2.59ZM62.75,92h2.52l.7,3.48H61.85l.7-3.48Zm3.47-3.47a1.16,1.16,0,0,1-1.16,1.16H62.75a1.16,1.16,0,0,1-1.16-1.16v-.68l2.31-2.31,2.31,2.31ZM51.38,74.62l10.83,9.32-2.59,2.59L57.11,89l-8-11ZM31.5,93.57V90.7c0-3.74,2.33-8.19,6.78-9.45l8.93-1.87L56,91.5a1.16,1.16,0,0,0,.85.47H57a1.16,1.16,0,0,0,.82-.34l1.77-1.77A3.49,3.49,0,0,0,60.37,91l-.88,4.42H33.82a2.13,2.13,0,0,1-2.31-1.88Zm64.82,0A2.14,2.14,0,0,1,94,95.45H68.33L67.45,91a3.48,3.48,0,0,0,.82-1.17L70,91.64a1.16,1.16,0,0,0,.82.34h.09a1.16,1.16,0,0,0,.85-.47l8.82-12.13,8.93,1.87C94,82.51,96.32,87,96.32,90.7Zm0,0"/><path class="cls-2" d="M44.24,60.53V74.62a1.16,1.16,0,1,0,2.31,0V60.73h1.06a22.83,22.83,0,0,0,3.95,7.42c3.37,4.17,7.76,6.46,12.36,6.46a15.1,15.1,0,0,0,10-4l0,0,.56,0a9.3,9.3,0,0,0,4.06-1,13.79,13.79,0,0,0,7.3-12.36V50.31a3.48,3.48,0,0,0-3.47-3.47H82c2.57-9.78,1.4-17.81.38-20.14h0l0-.07,0,0,0-.05,0,0,0,0,0,0,0,0-.05-.05,0,0L82,26.24l0,0-.06,0,0,0-.06,0,0,0-.05,0-.05,0-.05,0h-.47c-2.9.41-6.42-.29-10.14-1C64.74,23.72,58.29,22.43,53.25,26L53,26c-5.17,0-8.78,4.28-8.78,10.42a64,64,0,0,0,1.35,10.42h-.19a3.48,3.48,0,0,0-3.47,3.47v6.94a3.48,3.48,0,0,0,2.31,3.27Zm33.35,7a6.48,6.48,0,0,1-7.07-.69,3.47,3.47,0,1,0-1.64,1.65l.1.09a9.59,9.59,0,0,0,2.15,1.29,12.38,12.38,0,0,1-7.21,2.43c-3.89,0-7.64-2-10.56-5.6a21,21,0,0,1-4.53-13V52.43c0-4.12,2.34-9.69,3.13-11.46a52.1,52.1,0,0,1,18.34,1,34,34,0,0,1,6.6,2.27l2.09,5v4.58a21.15,21.15,0,0,1-3.14,11,1.16,1.16,0,1,0,2,1.22,23.2,23.2,0,0,0,2.39-5.24h2.22a3.45,3.45,0,0,0,.65-.06,11.09,11.09,0,0,1-5.49,6.86Zm-9-2.17a1.16,1.16,0,1,1-1.16-1.16,1.16,1.16,0,0,1,1.16,1.16Zm15-15v6.94a1.16,1.16,0,0,1-1.16,1.16H80.81a23,23,0,0,0,.49-4.66v-4.6h1.13a1.16,1.16,0,0,1,1.16,1.16ZM53,28.32a1.15,1.15,0,0,0,.32,0,1.15,1.15,0,0,0,1-.19c4.25-3.23,10.31-2,16.16-.84a46.08,46.08,0,0,0,8.72,1.21c.42,0,.83,0,1.24,0,.71,2.57,1.39,9-.55,17l-1.06-2.52a1.16,1.16,0,0,0-.51-.56c-.43-.24-10.65-5.75-27.33-3.61h-.17a1.15,1.15,0,0,0-.36.17h0l0,0a1.18,1.18,0,0,0-.21.2h0l0,0,0,0,0,0,0,.07h0a48.35,48.35,0,0,0-2.42,6.26,58.31,58.31,0,0,1-1.17-9.23c0-5.6,3.25-8.1,6.46-8.1Zm-8.78,22a1.16,1.16,0,0,1,1.16-1.16h.66c.22,1,.39,1.79.46,2.09v2.5A22.85,22.85,0,0,0,47,58.41H45.39a1.16,1.16,0,0,1-1.16-1.16Zm0,0"/></g></g></svg>