<svg xmlns="http://www.w3.org/2000/svg" viewBox="0 0 133.23 133.23"><defs><style>.cls-1{fill:#1eafd4;}.cls-2{fill:#fff;}</style></defs><title>servicio1</title><g id="Layer_2" data-name="Layer 2"><g id="Capa_1" data-name="Capa 1"><path class="cls-1" d="M0,0H97.86a35.38,35.38,0,0,1,35.38,35.38v97.86a0,0,0,0,1,0,0H37.79A37.79,37.79,0,0,1,0,95.44V0A0,0,0,0,1,0,0Z"/><path class="cls-2" d="M108.36,33.85H26.88a4.53,4.53,0,0,0-4.53,4.53V48.94a4.51,4.51,0,0,0,3,4.25V61a42.25,42.25,0,1,0,84.49,0V53.19a4.51,4.51,0,0,0,3-4.25V38.38A4.53,4.53,0,0,0,108.36,33.85ZM106.85,61a39.23,39.23,0,1,1-78.46,0V53.46h78.46Zm3-12.07a1.51,1.51,0,0,1-1.51,1.51H26.88a1.51,1.51,0,0,1-1.51-1.51V38.38a1.51,1.51,0,0,1,1.51-1.51h81.48a1.51,1.51,0,0,1,1.51,1.51Z"/><path class="cls-2" d="M67.62,95.71A15.09,15.09,0,1,0,52.53,80.62,15.09,15.09,0,0,0,67.62,95.71Zm0-27.16A12.07,12.07,0,1,1,55.55,80.62,12.07,12.07,0,0,1,67.62,68.55Z"/><path class="cls-2" d="M67.62,89.68a9.05,9.05,0,1,0-9.05-9.05A9.05,9.05,0,0,0,67.62,89.68Zm0-15.09a6,6,0,1,1-6,6A6,6,0,0,1,67.62,74.59Z"/><circle class="cls-2" cx="32.92" cy="57.99" r="1.51"/><path class="cls-2" d="M37.45,59.5H51a1.51,1.51,0,1,0,0-3H37.45a1.51,1.51,0,0,0,0,3Z"/></g></g></svg>